<?xml version="1.0" standalone="no"?>
<!DOCTYPE svg PUBLIC "-//W3C//DTD SVG 20010904//EN"
 "http://www.w3.org/TR/2001/REC-SVG-20010904/DTD/svg10.dtd">
<svg version="1.0" xmlns="http://www.w3.org/2000/svg"
 width="2133.000000pt" height="2133.000000pt" viewBox="0 0 2133.000000 2133.000000"
 preserveAspectRatio="xMidYMid meet">
<metadata>
Created by potrace 1.11, written by Peter Selinger 2001-2013
</metadata>
<g transform="translate(0.000000,2133.000000) scale(0.100000,-0.100000)"
fill="#000000" stroke="none">
<path d="M1408 18505 c-2 -2 -30 -6 -63 -9 -33 -4 -78 -12 -100 -18 -22 -5
-51 -12 -65 -15 -130 -23 -411 -154 -532 -247 -14 -12 -41 -32 -60 -45 -18
-14 -81 -73 -140 -133 -155 -156 -272 -338 -350 -543 -35 -91 -50 -148 -83
-315 -4 -19 -8 -114 -10 -210 -3 -197 13 -326 60 -477 29 -94 102 -267 131
-311 10 -15 17 -29 17 -32 -1 -8 87 -131 148 -205 32 -38 1230 -1242 2663
-2674 l2605 -2605 -2596 -2595 c-1428 -1428 -2624 -2627 -2657 -2666 -171
-195 -290 -440 -347 -711 -34 -160 -33 -494 1 -614 5 -17 9 -33 9 -35 -1 -26
43 -174 61 -207 6 -10 10 -22 10 -28 0 -19 73 -164 123 -245 248 -401 697
-687 1149 -732 426 -41 806 63 1143 315 67 50 6454 6431 6526 6520 162 201
274 434 324 677 25 121 30 186 29 345 -2 343 -105 645 -317 927 -88 117 -6483
6509 -6589 6587 -112 81 -238 150 -357 197 -57 22 -112 43 -122 45 -11 2 -27
6 -36 9 -146 39 -260 53 -425 53 -81 0 -148 -1 -150 -3z"/>
<path d="M10480 5949 c-285 -25 -530 -112 -765 -273 -99 -67 -287 -247 -357
-341 -149 -199 -262 -459 -293 -675 -4 -24 -9 -49 -12 -54 -12 -19 -11 -335 2
-426 67 -496 367 -931 805 -1168 156 -84 379 -158 540 -178 79 -10 9441 -13
9525 -3 85 10 134 17 160 23 461 99 846 388 1065 799 81 153 117 255 160 455
31 146 22 515 -15 633 -4 10 -8 31 -11 45 -9 50 -64 198 -105 283 -146 301
-392 555 -689 710 -82 43 -233 103 -295 117 -32 8 -39 10 -60 17 -11 3 -36 8
-55 11 -19 3 -44 7 -55 10 -11 2 -49 7 -85 12 -77 9 -9351 12 -9460 3z"/>
</g>
</svg>
